<?xml version="1.0" encoding="UTF-8" standalone="no"?>
<!DOCTYPE svg PUBLIC "-//W3C//DTD SVG 1.1//EN"
 "http://www.w3.org/Graphics/SVG/1.1/DTD/svg11.dtd">
<!-- Generated by graphviz version 2.40.1 (20161225.0304)
 -->
<!-- Title: dependencies Pages: 1 -->
<svg width="504pt" height="284pt"
 viewBox="0.00 0.00 504.00 284.00" xmlns="http://www.w3.org/2000/svg" xmlns:xlink="http://www.w3.org/1999/xlink">
<g id="graph0" class="graph" transform="scale(1 1) rotate(0) translate(4 280)">
<title>dependencies</title>
<polygon fill="#ffffff" stroke="transparent" points="-4,4 -4,-280 500,-280 500,4 -4,4"/>
<text text-anchor="start" x="227.0091" y="-42.4" font-family="sans-serif" font-weight="bold" font-size="14.00" fill="#000000">Legend</text>
<polygon fill="#ffffb3" stroke="transparent" points="14,-10 14,-30 34,-30 34,-10 14,-10"/>
<text text-anchor="start" x="37.629" y="-15.4" font-family="sans-serif" font-size="14.00" fill="#000000"> &#160;Declarations</text>
<polygon fill="#8dd3c7" stroke="transparent" points="127,-10 127,-30 147,-30 147,-10 127,-10"/>
<text text-anchor="start" x="150.7251" y="-15.4" font-family="sans-serif" font-size="14.00" fill="#000000"> &#160;Module</text>
<polygon fill="#80b1d3" stroke="transparent" points="213,-10 213,-30 233,-30 233,-10 213,-10"/>
<text text-anchor="start" x="236.7812" y="-15.4" font-family="sans-serif" font-size="14.00" fill="#000000"> &#160;Bootstrap</text>
<polygon fill="#fdb462" stroke="transparent" points="310,-10 310,-30 330,-30 330,-10 310,-10"/>
<text text-anchor="start" x="333.6732" y="-15.4" font-family="sans-serif" font-size="14.00" fill="#000000"> &#160;Providers</text>
<polygon fill="#fb8072" stroke="transparent" points="406,-10 406,-30 426,-30 426,-10 406,-10"/>
<text text-anchor="start" x="429.7258" y="-15.4" font-family="sans-serif" font-size="14.00" fill="#000000"> &#160;Exports</text>
<g id="clust1" class="cluster">
<title>cluster_HomePageModule</title>
<polygon fill="none" stroke="#000000" stroke-dasharray="1,5" points="81,-70 81,-268 415,-268 415,-70 81,-70"/>
</g>
<g id="clust2" class="cluster">
<title>cluster_HomePageModule_declarations</title>
<polygon fill="none" stroke="#000000" points="313,-78 313,-130 407,-130 407,-78 313,-78"/>
</g>
<g id="clust4" class="cluster">
<title>cluster_HomePageModule_imports</title>
<polygon fill="none" stroke="#000000" points="89,-78 89,-130 305,-130 305,-78 89,-78"/>
</g>
<g id="clust5" class="cluster">
<title>cluster_HomePageModule_exports</title>
<polygon fill="none" stroke="#000000" points="224,-208 224,-260 320,-260 320,-208 224,-208"/>
</g>
<!-- HomePage -->
<g id="node1" class="node">
<title>HomePage</title>
<polygon fill="#ffffb3" stroke="#000000" points="398.9248,-122 321.0752,-122 321.0752,-86 398.9248,-86 398.9248,-122"/>
<text text-anchor="middle" x="360" y="-99.8" font-family="Times,serif" font-size="14.00" fill="#000000">HomePage</text>
</g>
<!-- HomePageModule -->
<g id="node2" class="node">
<title>HomePageModule</title>
<polygon fill="#8dd3c7" stroke="#000000" points="332.4734,-187 329.4734,-191 308.4734,-191 305.4734,-187 211.5266,-187 211.5266,-151 332.4734,-151 332.4734,-187"/>
<text text-anchor="middle" x="272" y="-164.8" font-family="Times,serif" font-size="14.00" fill="#000000">HomePageModule</text>
</g>
<!-- HomePage&#45;&gt;HomePageModule -->
<g id="edge1" class="edge">
<title>HomePage&#45;&gt;HomePageModule</title>
<path fill="none" stroke="#000000" d="M326.8875,-122.1061C326.8875,-122.1061 326.8875,-140.991 326.8875,-140.991"/>
<polygon fill="#000000" stroke="#000000" points="323.3875,-140.9909 326.8875,-150.991 330.3875,-140.991 323.3875,-140.9909"/>
</g>
<!-- HomePage  -->
<g id="node4" class="node">
<title>HomePage </title>
<polygon fill="#fb8072" stroke="#000000" points="312.4236,-252 231.5764,-252 231.5764,-216 312.4236,-216 312.4236,-252"/>
<text text-anchor="middle" x="272" y="-229.8" font-family="Times,serif" font-size="14.00" fill="#000000">HomePage </text>
</g>
<!-- HomePageModule&#45;&gt;HomePage  -->
<g id="edge3" class="edge">
<title>HomePageModule&#45;&gt;HomePage </title>
<path fill="none" stroke="#000000" stroke-dasharray="5,2" d="M272,-187.1061C272,-187.1061 272,-205.991 272,-205.991"/>
<polygon fill="#000000" stroke="#000000" points="268.5001,-205.9909 272,-215.991 275.5001,-205.991 268.5001,-205.9909"/>
</g>
<!-- IonicPageModule.forChild(args) -->
<g id="node3" class="node">
<title>IonicPageModule.forChild(args)</title>
<polygon fill="#8dd3c7" stroke="#000000" points="296.6074,-122 293.6074,-126 272.6074,-126 269.6074,-122 97.3926,-122 97.3926,-86 296.6074,-86 296.6074,-122"/>
<text text-anchor="middle" x="197" y="-99.8" font-family="Times,serif" font-size="14.00" fill="#000000">IonicPageModule.forChild(args)</text>
</g>
<!-- IonicPageModule.forChild(args)&#45;&gt;HomePageModule -->
<g id="edge2" class="edge">
<title>IonicPageModule.forChild(args)&#45;&gt;HomePageModule</title>
<path fill="none" stroke="#000000" d="M254.0335,-122.1061C254.0335,-122.1061 254.0335,-140.991 254.0335,-140.991"/>
<polygon fill="#000000" stroke="#000000" points="250.5336,-140.9909 254.0335,-150.991 257.5336,-140.991 250.5336,-140.9909"/>
</g>
</g>
</svg>
