<?xml version="1.0" encoding="UTF-8" standalone="no"?>
<!DOCTYPE svg PUBLIC "-//W3C//DTD SVG 1.1//EN"
 "http://www.w3.org/Graphics/SVG/1.1/DTD/svg11.dtd">
<!-- Generated by graphviz version 2.40.1 (20161225.0304)
 -->
<!-- Title: dependencies Pages: 1 -->
<svg width="2863pt" height="284pt"
 viewBox="0.00 0.00 2863.00 284.00" xmlns="http://www.w3.org/2000/svg" xmlns:xlink="http://www.w3.org/1999/xlink">
<g id="graph0" class="graph" transform="scale(1 1) rotate(0) translate(4 280)">
<title>dependencies</title>
<polygon fill="#ffffff" stroke="transparent" points="-4,4 -4,-280 2859,-280 2859,4 -4,4"/>
<text text-anchor="start" x="1406.5091" y="-42.4" font-family="sans-serif" font-weight="bold" font-size="14.00" fill="#000000">Legend</text>
<polygon fill="#ffffb3" stroke="transparent" points="1193.5,-10 1193.5,-30 1213.5,-30 1213.5,-10 1193.5,-10"/>
<text text-anchor="start" x="1217.129" y="-15.4" font-family="sans-serif" font-size="14.00" fill="#000000"> &#160;Declarations</text>
<polygon fill="#8dd3c7" stroke="transparent" points="1306.5,-10 1306.5,-30 1326.5,-30 1326.5,-10 1306.5,-10"/>
<text text-anchor="start" x="1330.2251" y="-15.4" font-family="sans-serif" font-size="14.00" fill="#000000"> &#160;Module</text>
<polygon fill="#80b1d3" stroke="transparent" points="1392.5,-10 1392.5,-30 1412.5,-30 1412.5,-10 1392.5,-10"/>
<text text-anchor="start" x="1416.2812" y="-15.4" font-family="sans-serif" font-size="14.00" fill="#000000"> &#160;Bootstrap</text>
<polygon fill="#fdb462" stroke="transparent" points="1489.5,-10 1489.5,-30 1509.5,-30 1509.5,-10 1489.5,-10"/>
<text text-anchor="start" x="1513.1732" y="-15.4" font-family="sans-serif" font-size="14.00" fill="#000000"> &#160;Providers</text>
<polygon fill="#fb8072" stroke="transparent" points="1585.5,-10 1585.5,-30 1605.5,-30 1605.5,-10 1585.5,-10"/>
<text text-anchor="start" x="1609.2258" y="-15.4" font-family="sans-serif" font-size="14.00" fill="#000000"> &#160;Exports</text>
<g id="clust1" class="cluster">
<title>cluster_AppModule</title>
<polygon fill="none" stroke="#000000" stroke-dasharray="1,5" points="8,-70 8,-268 2847,-268 2847,-70 8,-70"/>
</g>
<g id="clust2" class="cluster">
<title>cluster_AppModule_declarations</title>
<polygon fill="none" stroke="#000000" points="2763,-78 2763,-130 2839,-130 2839,-78 2763,-78"/>
</g>
<g id="clust4" class="cluster">
<title>cluster_AppModule_imports</title>
<polygon fill="none" stroke="#000000" points="1789,-78 1789,-130 2755,-130 2755,-78 1789,-78"/>
</g>
<g id="clust6" class="cluster">
<title>cluster_AppModule_bootstrap</title>
<polygon fill="none" stroke="#000000" points="1522,-208 1522,-260 1610,-260 1610,-208 1522,-208"/>
</g>
<g id="clust7" class="cluster">
<title>cluster_AppModule_providers</title>
<polygon fill="none" stroke="#000000" points="16,-78 16,-130 1781,-130 1781,-78 16,-78"/>
</g>
<!-- MyApp -->
<g id="node1" class="node">
<title>MyApp</title>
<polygon fill="#ffffb3" stroke="#000000" points="2830.5529,-122 2771.4471,-122 2771.4471,-86 2830.5529,-86 2830.5529,-122"/>
<text text-anchor="middle" x="2801" y="-99.8" font-family="Times,serif" font-size="14.00" fill="#000000">MyApp</text>
</g>
<!-- AppModule -->
<g id="node2" class="node">
<title>AppModule</title>
<polygon fill="#8dd3c7" stroke="#000000" points="1607.6571,-187 1604.6571,-191 1583.6571,-191 1580.6571,-187 1524.3429,-187 1524.3429,-151 1607.6571,-151 1607.6571,-187"/>
<text text-anchor="middle" x="1566" y="-164.8" font-family="Times,serif" font-size="14.00" fill="#000000">AppModule</text>
</g>
<!-- MyApp&#45;&gt;AppModule -->
<g id="edge1" class="edge">
<title>MyApp&#45;&gt;AppModule</title>
<path fill="none" stroke="#000000" d="M2801,-122.3228C2801,-145.6602 2801,-183 2801,-183 2801,-183 1617.7983,-183 1617.7983,-183"/>
<polygon fill="#000000" stroke="#000000" points="1617.7984,-179.5001 1607.7983,-183 1617.7983,-186.5001 1617.7984,-179.5001"/>
</g>
<!-- IonicApp  -->
<g id="node8" class="node">
<title>IonicApp </title>
<polygon fill="#80b1d3" stroke="#000000" points="1602.3734,-252 1529.6266,-252 1529.6266,-216 1602.3734,-216 1602.3734,-252"/>
<text text-anchor="middle" x="1566" y="-229.8" font-family="Times,serif" font-size="14.00" fill="#000000">IonicApp </text>
</g>
<!-- AppModule&#45;&gt;IonicApp  -->
<g id="edge7" class="edge">
<title>AppModule&#45;&gt;IonicApp </title>
<path fill="none" stroke="#000000" stroke-dasharray="1,5" d="M1566,-187.1061C1566,-187.1061 1566,-205.991 1566,-205.991"/>
<polygon fill="#000000" stroke="#000000" points="1562.5001,-205.9909 1566,-215.991 1569.5001,-205.991 1562.5001,-205.9909"/>
</g>
<!-- BrowserModule -->
<g id="node3" class="node">
<title>BrowserModule</title>
<polygon fill="#8dd3c7" stroke="#000000" points="2747.4734,-122 2744.4734,-126 2723.4734,-126 2720.4734,-122 2640.5266,-122 2640.5266,-86 2747.4734,-86 2747.4734,-122"/>
<text text-anchor="middle" x="2694" y="-99.8" font-family="Times,serif" font-size="14.00" fill="#000000">BrowserModule</text>
</g>
<!-- BrowserModule&#45;&gt;AppModule -->
<g id="edge2" class="edge">
<title>BrowserModule&#45;&gt;AppModule</title>
<path fill="none" stroke="#000000" d="M2694,-122.2921C2694,-144.2057 2694,-178 2694,-178 2694,-178 1617.8214,-178 1617.8214,-178"/>
<polygon fill="#000000" stroke="#000000" points="1617.8215,-174.5001 1607.8214,-178 1617.8214,-181.5001 1617.8215,-174.5001"/>
</g>
<!-- IonicModule.forRoot(args) -->
<g id="node4" class="node">
<title>IonicModule.forRoot(args)</title>
<polygon fill="#8dd3c7" stroke="#000000" points="2623.005,-122 2620.005,-126 2599.005,-126 2596.005,-122 2454.995,-122 2454.995,-86 2623.005,-86 2623.005,-122"/>
<text text-anchor="middle" x="2539" y="-99.8" font-family="Times,serif" font-size="14.00" fill="#000000">IonicModule.forRoot(args)</text>
</g>
<!-- IonicModule.forRoot(args)&#45;&gt;AppModule -->
<g id="edge3" class="edge">
<title>IonicModule.forRoot(args)&#45;&gt;AppModule</title>
<path fill="none" stroke="#000000" d="M2539,-122.0267C2539,-142.7672 2539,-174 2539,-174 2539,-174 1617.8086,-174 1617.8086,-174"/>
<polygon fill="#000000" stroke="#000000" points="1617.8086,-170.5001 1607.8086,-174 1617.8086,-177.5001 1617.8086,-170.5001"/>
</g>
<!-- AngularFireModule.initializeApp(args) -->
<g id="node5" class="node">
<title>AngularFireModule.initializeApp(args)</title>
<polygon fill="#8dd3c7" stroke="#000000" points="2436.7057,-122 2433.7057,-126 2412.7057,-126 2409.7057,-122 2199.2943,-122 2199.2943,-86 2436.7057,-86 2436.7057,-122"/>
<text text-anchor="middle" x="2318" y="-99.8" font-family="Times,serif" font-size="14.00" fill="#000000">AngularFireModule.initializeApp(args)</text>
</g>
<!-- AngularFireModule.initializeApp(args)&#45;&gt;AppModule -->
<g id="edge4" class="edge">
<title>AngularFireModule.initializeApp(args)&#45;&gt;AppModule</title>
<path fill="none" stroke="#000000" d="M2318,-122.1061C2318,-141.3391 2318,-169 2318,-169 2318,-169 1617.7717,-169 1617.7717,-169"/>
<polygon fill="#000000" stroke="#000000" points="1617.7717,-165.5001 1607.7717,-169 1617.7716,-172.5001 1617.7717,-165.5001"/>
</g>
<!-- AngularFireDatabaseModule -->
<g id="node6" class="node">
<title>AngularFireDatabaseModule</title>
<polygon fill="#8dd3c7" stroke="#000000" points="2181.771,-122 2178.771,-126 2157.771,-126 2154.771,-122 2002.229,-122 2002.229,-86 2181.771,-86 2181.771,-122"/>
<text text-anchor="middle" x="2092" y="-99.8" font-family="Times,serif" font-size="14.00" fill="#000000">AngularFireDatabaseModule</text>
</g>
<!-- AngularFireDatabaseModule&#45;&gt;AppModule -->
<g id="edge5" class="edge">
<title>AngularFireDatabaseModule&#45;&gt;AppModule</title>
<path fill="none" stroke="#000000" d="M2092,-122.302C2092,-140.2699 2092,-165 2092,-165 2092,-165 1617.714,-165 1617.714,-165"/>
<polygon fill="#000000" stroke="#000000" points="1617.714,-161.5001 1607.714,-165 1617.714,-168.5001 1617.714,-161.5001"/>
</g>
<!-- IonicStorageModule.forRoot() -->
<g id="node7" class="node">
<title>IonicStorageModule.forRoot()</title>
<polygon fill="#8dd3c7" stroke="#000000" points="1984.9487,-122 1981.9487,-126 1960.9487,-126 1957.9487,-122 1797.0513,-122 1797.0513,-86 1984.9487,-86 1984.9487,-122"/>
<text text-anchor="middle" x="1891" y="-99.8" font-family="Times,serif" font-size="14.00" fill="#000000">IonicStorageModule.forRoot()</text>
</g>
<!-- IonicStorageModule.forRoot()&#45;&gt;AppModule -->
<g id="edge6" class="edge">
<title>IonicStorageModule.forRoot()&#45;&gt;AppModule</title>
<path fill="none" stroke="#000000" d="M1891,-122.027C1891,-138.3976 1891,-160 1891,-160 1891,-160 1617.8227,-160 1617.8227,-160"/>
<polygon fill="#000000" stroke="#000000" points="1617.8228,-156.5001 1607.8227,-160 1617.8227,-163.5001 1617.8228,-156.5001"/>
</g>
<!-- CameraPreview -->
<g id="node9" class="node">
<title>CameraPreview</title>
<ellipse fill="#fdb462" stroke="#000000" cx="1700" cy="-104" rx="72.9082" ry="18"/>
<text text-anchor="middle" x="1700" y="-99.8" font-family="Times,serif" font-size="14.00" fill="#000000">CameraPreview</text>
</g>
<!-- CameraPreview&#45;&gt;AppModule -->
<g id="edge8" class="edge">
<title>CameraPreview&#45;&gt;AppModule</title>
<path fill="none" stroke="#000000" d="M1700,-122.1871C1700,-137.1824 1700,-156 1700,-156 1700,-156 1617.6639,-156 1617.6639,-156"/>
<polygon fill="#000000" stroke="#000000" points="1617.6639,-152.5001 1607.6639,-156 1617.6639,-159.5001 1617.6639,-152.5001"/>
</g>
<!-- Firebase -->
<g id="node10" class="node">
<title>Firebase</title>
<ellipse fill="#fdb462" stroke="#000000" cx="1566" cy="-104" rx="43.9964" ry="18"/>
<text text-anchor="middle" x="1566" y="-99.8" font-family="Times,serif" font-size="14.00" fill="#000000">Firebase</text>
</g>
<!-- Firebase&#45;&gt;AppModule -->
<g id="edge9" class="edge">
<title>Firebase&#45;&gt;AppModule</title>
<path fill="none" stroke="#000000" d="M1566,-122.1061C1566,-122.1061 1566,-140.991 1566,-140.991"/>
<polygon fill="#000000" stroke="#000000" points="1562.5001,-140.9909 1566,-150.991 1569.5001,-140.991 1562.5001,-140.9909"/>
</g>
<!-- StatusBar -->
<g id="node11" class="node">
<title>StatusBar</title>
<ellipse fill="#fdb462" stroke="#000000" cx="1456" cy="-104" rx="48.6694" ry="18"/>
<text text-anchor="middle" x="1456" y="-99.8" font-family="Times,serif" font-size="14.00" fill="#000000">StatusBar</text>
</g>
<!-- StatusBar&#45;&gt;AppModule -->
<g id="edge10" class="edge">
<title>StatusBar&#45;&gt;AppModule</title>
<path fill="none" stroke="#000000" d="M1456,-122.1871C1456,-137.1824 1456,-156 1456,-156 1456,-156 1514.0999,-156 1514.0999,-156"/>
<polygon fill="#000000" stroke="#000000" points="1514.1,-159.5001 1524.0999,-156 1514.0999,-152.5001 1514.1,-159.5001"/>
</g>
<!-- SplashScreen -->
<g id="node12" class="node">
<title>SplashScreen</title>
<ellipse fill="#fdb462" stroke="#000000" cx="1326" cy="-104" rx="63.1189" ry="18"/>
<text text-anchor="middle" x="1326" y="-99.8" font-family="Times,serif" font-size="14.00" fill="#000000">SplashScreen</text>
</g>
<!-- SplashScreen&#45;&gt;AppModule -->
<g id="edge11" class="edge">
<title>SplashScreen&#45;&gt;AppModule</title>
<path fill="none" stroke="#000000" d="M1326,-122.027C1326,-138.3976 1326,-160 1326,-160 1326,-160 1514.1952,-160 1514.1952,-160"/>
<polygon fill="#000000" stroke="#000000" points="1514.1952,-163.5001 1524.1952,-160 1514.1952,-156.5001 1514.1952,-163.5001"/>
</g>
<!-- { provide: ErrorHandler, useClass: IonicErrorHandler } -->
<g id="node13" class="node">
<title>{ provide: ErrorHandler, useClass: IonicErrorHandler }</title>
<ellipse fill="#fdb462" stroke="#000000" cx="1019" cy="-104" rx="226.4736" ry="18"/>
<text text-anchor="middle" x="1019" y="-99.8" font-family="Times,serif" font-size="14.00" fill="#000000">{ provide: ErrorHandler, useClass: IonicErrorHandler }</text>
</g>
<!-- { provide: ErrorHandler, useClass: IonicErrorHandler }&#45;&gt;AppModule -->
<g id="edge12" class="edge">
<title>{ provide: ErrorHandler, useClass: IonicErrorHandler }&#45;&gt;AppModule</title>
<path fill="none" stroke="#000000" d="M1019,-122.302C1019,-140.2699 1019,-165 1019,-165 1019,-165 1513.9861,-165 1513.9861,-165"/>
<polygon fill="#000000" stroke="#000000" points="1513.9861,-168.5001 1523.9861,-165 1513.9861,-161.5001 1513.9861,-168.5001"/>
</g>
<!-- AngularFireAuth -->
<g id="node14" class="node">
<title>AngularFireAuth</title>
<ellipse fill="#fdb462" stroke="#000000" cx="697" cy="-104" rx="77.5878" ry="18"/>
<text text-anchor="middle" x="697" y="-99.8" font-family="Times,serif" font-size="14.00" fill="#000000">AngularFireAuth</text>
</g>
<!-- AngularFireAuth&#45;&gt;AppModule -->
<g id="edge13" class="edge">
<title>AngularFireAuth&#45;&gt;AppModule</title>
<path fill="none" stroke="#000000" d="M697,-122.1061C697,-141.3391 697,-169 697,-169 697,-169 1514.0863,-169 1514.0863,-169"/>
<polygon fill="#000000" stroke="#000000" points="1514.0864,-172.5001 1524.0863,-169 1514.0863,-165.5001 1514.0864,-172.5001"/>
</g>
<!-- AuthProvider -->
<g id="node15" class="node">
<title>AuthProvider</title>
<ellipse fill="#fdb462" stroke="#000000" cx="538" cy="-104" rx="63.7045" ry="18"/>
<text text-anchor="middle" x="538" y="-99.8" font-family="Times,serif" font-size="14.00" fill="#000000">AuthProvider</text>
</g>
<!-- AuthProvider&#45;&gt;AppModule -->
<g id="edge14" class="edge">
<title>AuthProvider&#45;&gt;AppModule</title>
<path fill="none" stroke="#000000" d="M538,-122.0267C538,-142.7672 538,-174 538,-174 538,-174 1514.1069,-174 1514.1069,-174"/>
<polygon fill="#000000" stroke="#000000" points="1514.1069,-177.5001 1524.1069,-174 1514.1068,-170.5001 1514.1069,-177.5001"/>
</g>
<!-- FirebaseServiceProvider -->
<g id="node16" class="node">
<title>FirebaseServiceProvider</title>
<ellipse fill="#fdb462" stroke="#000000" cx="350" cy="-104" rx="105.9131" ry="18"/>
<text text-anchor="middle" x="350" y="-99.8" font-family="Times,serif" font-size="14.00" fill="#000000">FirebaseServiceProvider</text>
</g>
<!-- FirebaseServiceProvider&#45;&gt;AppModule -->
<g id="edge15" class="edge">
<title>FirebaseServiceProvider&#45;&gt;AppModule</title>
<path fill="none" stroke="#000000" d="M350,-122.2921C350,-144.2057 350,-178 350,-178 350,-178 1514.1425,-178 1514.1425,-178"/>
<polygon fill="#000000" stroke="#000000" points="1514.1426,-181.5001 1524.1425,-178 1514.1425,-174.5001 1514.1426,-181.5001"/>
</g>
<!-- PictureServiceProvider -->
<g id="node17" class="node">
<title>PictureServiceProvider</title>
<ellipse fill="#fdb462" stroke="#000000" cx="125" cy="-104" rx="100.6959" ry="18"/>
<text text-anchor="middle" x="125" y="-99.8" font-family="Times,serif" font-size="14.00" fill="#000000">PictureServiceProvider</text>
</g>
<!-- PictureServiceProvider&#45;&gt;AppModule -->
<g id="edge16" class="edge">
<title>PictureServiceProvider&#45;&gt;AppModule</title>
<path fill="none" stroke="#000000" d="M125,-122.3228C125,-145.6602 125,-183 125,-183 125,-183 1514.0417,-183 1514.0417,-183"/>
<polygon fill="#000000" stroke="#000000" points="1514.0417,-186.5001 1524.0417,-183 1514.0416,-179.5001 1514.0417,-186.5001"/>
</g>
</g>
</svg>
