<?xml version="1.0" encoding="UTF-8" standalone="no"?>
<!DOCTYPE svg PUBLIC "-//W3C//DTD SVG 1.1//EN"
 "http://www.w3.org/Graphics/SVG/1.1/DTD/svg11.dtd">
<!-- Generated by graphviz version 2.40.1 (20161225.0304)
 -->
<!-- Title: dependencies Pages: 1 -->
<svg width="504pt" height="284pt"
 viewBox="0.00 0.00 504.00 284.00" xmlns="http://www.w3.org/2000/svg" xmlns:xlink="http://www.w3.org/1999/xlink">
<g id="graph0" class="graph" transform="scale(1 1) rotate(0) translate(4 280)">
<title>dependencies</title>
<polygon fill="#ffffff" stroke="transparent" points="-4,4 -4,-280 500,-280 500,4 -4,4"/>
<text text-anchor="start" x="227.0091" y="-42.4" font-family="sans-serif" font-weight="bold" font-size="14.00" fill="#000000">Legend</text>
<polygon fill="#ffffb3" stroke="transparent" points="14,-10 14,-30 34,-30 34,-10 14,-10"/>
<text text-anchor="start" x="37.629" y="-15.4" font-family="sans-serif" font-size="14.00" fill="#000000"> &#160;Declarations</text>
<polygon fill="#8dd3c7" stroke="transparent" points="127,-10 127,-30 147,-30 147,-10 127,-10"/>
<text text-anchor="start" x="150.7251" y="-15.4" font-family="sans-serif" font-size="14.00" fill="#000000"> &#160;Module</text>
<polygon fill="#80b1d3" stroke="transparent" points="213,-10 213,-30 233,-30 233,-10 213,-10"/>
<text text-anchor="start" x="236.7812" y="-15.4" font-family="sans-serif" font-size="14.00" fill="#000000"> &#160;Bootstrap</text>
<polygon fill="#fdb462" stroke="transparent" points="310,-10 310,-30 330,-30 330,-10 310,-10"/>
<text text-anchor="start" x="333.6732" y="-15.4" font-family="sans-serif" font-size="14.00" fill="#000000"> &#160;Providers</text>
<polygon fill="#fb8072" stroke="transparent" points="406,-10 406,-30 426,-30 426,-10 406,-10"/>
<text text-anchor="start" x="429.7258" y="-15.4" font-family="sans-serif" font-size="14.00" fill="#000000"> &#160;Exports</text>
<g id="clust1" class="cluster">
<title>cluster_SnapModule</title>
<polygon fill="none" stroke="#000000" stroke-dasharray="1,5" points="93,-70 93,-268 403,-268 403,-70 93,-70"/>
</g>
<g id="clust2" class="cluster">
<title>cluster_SnapModule_declarations</title>
<polygon fill="none" stroke="#000000" points="325,-78 325,-130 395,-130 395,-78 325,-78"/>
</g>
<g id="clust4" class="cluster">
<title>cluster_SnapModule_imports</title>
<polygon fill="none" stroke="#000000" points="101,-78 101,-130 317,-130 317,-78 101,-78"/>
</g>
<g id="clust5" class="cluster">
<title>cluster_SnapModule_exports</title>
<polygon fill="none" stroke="#000000" points="245,-208 245,-260 315,-260 315,-208 245,-208"/>
</g>
<!-- Snap -->
<g id="node1" class="node">
<title>Snap</title>
<polygon fill="#ffffb3" stroke="#000000" points="387,-122 333,-122 333,-86 387,-86 387,-122"/>
<text text-anchor="middle" x="360" y="-99.8" font-family="Times,serif" font-size="14.00" fill="#000000">Snap</text>
</g>
<!-- SnapModule -->
<g id="node2" class="node">
<title>SnapModule</title>
<polygon fill="#8dd3c7" stroke="#000000" points="323.5482,-187 320.5482,-191 299.5482,-191 296.5482,-187 236.4518,-187 236.4518,-151 323.5482,-151 323.5482,-187"/>
<text text-anchor="middle" x="280" y="-164.8" font-family="Times,serif" font-size="14.00" fill="#000000">SnapModule</text>
</g>
<!-- Snap&#45;&gt;SnapModule -->
<g id="edge1" class="edge">
<title>Snap&#45;&gt;SnapModule</title>
<path fill="none" stroke="#000000" d="M332.9865,-104C323.9655,-104 316.1636,-104 316.1636,-104 316.1636,-104 316.1636,-140.8939 316.1636,-140.8939"/>
<polygon fill="#000000" stroke="#000000" points="312.6637,-140.8938 316.1636,-150.8939 319.6637,-140.8939 312.6637,-140.8938"/>
</g>
<!-- Snap  -->
<g id="node4" class="node">
<title>Snap </title>
<polygon fill="#fb8072" stroke="#000000" points="307,-252 253,-252 253,-216 307,-216 307,-252"/>
<text text-anchor="middle" x="280" y="-229.8" font-family="Times,serif" font-size="14.00" fill="#000000">Snap </text>
</g>
<!-- SnapModule&#45;&gt;Snap  -->
<g id="edge3" class="edge">
<title>SnapModule&#45;&gt;Snap </title>
<path fill="none" stroke="#000000" stroke-dasharray="5,2" d="M280,-187.1061C280,-187.1061 280,-205.991 280,-205.991"/>
<polygon fill="#000000" stroke="#000000" points="276.5001,-205.9909 280,-215.991 283.5001,-205.991 276.5001,-205.9909"/>
</g>
<!-- IonicPageModule.forChild(args) -->
<g id="node3" class="node">
<title>IonicPageModule.forChild(args)</title>
<polygon fill="#8dd3c7" stroke="#000000" points="308.6074,-122 305.6074,-126 284.6074,-126 281.6074,-122 109.3926,-122 109.3926,-86 308.6074,-86 308.6074,-122"/>
<text text-anchor="middle" x="209" y="-99.8" font-family="Times,serif" font-size="14.00" fill="#000000">IonicPageModule.forChild(args)</text>
</g>
<!-- IonicPageModule.forChild(args)&#45;&gt;SnapModule -->
<g id="edge2" class="edge">
<title>IonicPageModule.forChild(args)&#45;&gt;SnapModule</title>
<path fill="none" stroke="#000000" d="M272.3901,-122.1061C272.3901,-122.1061 272.3901,-140.991 272.3901,-140.991"/>
<polygon fill="#000000" stroke="#000000" points="268.8902,-140.9909 272.3901,-150.991 275.8902,-140.991 268.8902,-140.9909"/>
</g>
</g>
</svg>
