<?xml version="1.0" encoding="windows-1252"?>
<!-- Generator: Adobe Illustrator 19.0.0, SVG Export Plug-In . SVG Version: 6.00 Build 0)  -->
<svg version="1.1" id="Layer_1" xmlns="http://www.w3.org/2000/svg" xmlns:xlink="http://www.w3.org/1999/xlink" x="0px" y="0px" viewBox="0 0 512 512" style="enable-background:new 0 0 512 512;" xml:space="preserve">
<path style="fill:#91DC5A;" d="M493.714,237.714C493.714,420.571,256,512,256,512S18.286,420.571,18.286,237.714  C18.286,106.428,124.714,0,256,0S493.714,106.428,493.714,237.714z"/>
<path style="fill:#64C37D;" d="M256,0c131.286,0,237.714,106.428,237.714,237.714C493.714,420.571,256,512,256,512"/>
<path style="fill:#1E2E3B;" d="M409.529,302.098c-37.767,38.398-114.013,24.651-114.013,24.651s-15.009-76.008,22.757-114.406  c37.767-38.398,114.015-24.651,114.015-24.651S447.298,263.698,409.529,302.098z"/>
<g>
	<path style="fill:#3C5D76;" d="M102.471,302.098c37.767,38.398,114.013,24.651,114.013,24.651s15.011-76.008-22.757-114.406   S79.713,187.692,79.713,187.692S64.704,263.698,102.471,302.098z"/>
	<path style="fill:#3C5D76;" d="M201.143,384c0,30.296,24.561,54.857,54.857,54.857l0,0c30.296,0,54.857-24.561,54.857-54.857   H201.143z"/>
</g>
<path style="fill:#1E2E3B;" d="M256,384c0,30.296,0,38.4,0,54.857l0,0c30.296,0,54.857-24.561,54.857-54.857H256z"/>
<g>
</g>
<g>
</g>
<g>
</g>
<g>
</g>
<g>
</g>
<g>
</g>
<g>
</g>
<g>
</g>
<g>
</g>
<g>
</g>
<g>
</g>
<g>
</g>
<g>
</g>
<g>
</g>
<g>
</g>
</svg>