<?xml version="1.0" encoding="UTF-8" standalone="no"?>
<!DOCTYPE svg PUBLIC "-//W3C//DTD SVG 1.1//EN"
 "http://www.w3.org/Graphics/SVG/1.1/DTD/svg11.dtd">
<!-- Generated by graphviz version 2.40.1 (20161225.0304)
 -->
<!-- Title: dependencies Pages: 1 -->
<svg width="504pt" height="284pt"
 viewBox="0.00 0.00 504.00 284.00" xmlns="http://www.w3.org/2000/svg" xmlns:xlink="http://www.w3.org/1999/xlink">
<g id="graph0" class="graph" transform="scale(1 1) rotate(0) translate(4 280)">
<title>dependencies</title>
<polygon fill="#ffffff" stroke="transparent" points="-4,4 -4,-280 500,-280 500,4 -4,4"/>
<text text-anchor="start" x="227.0091" y="-42.4" font-family="sans-serif" font-weight="bold" font-size="14.00" fill="#000000">Legend</text>
<polygon fill="#ffffb3" stroke="transparent" points="14,-10 14,-30 34,-30 34,-10 14,-10"/>
<text text-anchor="start" x="37.629" y="-15.4" font-family="sans-serif" font-size="14.00" fill="#000000"> &#160;Declarations</text>
<polygon fill="#8dd3c7" stroke="transparent" points="127,-10 127,-30 147,-30 147,-10 127,-10"/>
<text text-anchor="start" x="150.7251" y="-15.4" font-family="sans-serif" font-size="14.00" fill="#000000"> &#160;Module</text>
<polygon fill="#80b1d3" stroke="transparent" points="213,-10 213,-30 233,-30 233,-10 213,-10"/>
<text text-anchor="start" x="236.7812" y="-15.4" font-family="sans-serif" font-size="14.00" fill="#000000"> &#160;Bootstrap</text>
<polygon fill="#fdb462" stroke="transparent" points="310,-10 310,-30 330,-30 330,-10 310,-10"/>
<text text-anchor="start" x="333.6732" y="-15.4" font-family="sans-serif" font-size="14.00" fill="#000000"> &#160;Providers</text>
<polygon fill="#fb8072" stroke="transparent" points="406,-10 406,-30 426,-30 426,-10 406,-10"/>
<text text-anchor="start" x="429.7258" y="-15.4" font-family="sans-serif" font-size="14.00" fill="#000000"> &#160;Exports</text>
<g id="clust1" class="cluster">
<title>cluster_SignUpModule</title>
<polygon fill="none" stroke="#000000" stroke-dasharray="1,5" points="91,-70 91,-268 405,-268 405,-70 91,-70"/>
</g>
<g id="clust2" class="cluster">
<title>cluster_SignUpModule_declarations</title>
<polygon fill="none" stroke="#000000" points="323,-78 323,-130 397,-130 397,-78 323,-78"/>
</g>
<g id="clust4" class="cluster">
<title>cluster_SignUpModule_imports</title>
<polygon fill="none" stroke="#000000" points="99,-78 99,-130 315,-130 315,-78 99,-78"/>
</g>
<g id="clust5" class="cluster">
<title>cluster_SignUpModule_exports</title>
<polygon fill="none" stroke="#000000" points="237,-208 237,-260 315,-260 315,-208 237,-208"/>
</g>
<!-- SignUp -->
<g id="node1" class="node">
<title>SignUp</title>
<polygon fill="#ffffb3" stroke="#000000" points="389.2802,-122 330.7198,-122 330.7198,-86 389.2802,-86 389.2802,-122"/>
<text text-anchor="middle" x="360" y="-99.8" font-family="Times,serif" font-size="14.00" fill="#000000">SignUp</text>
</g>
<!-- SignUpModule -->
<g id="node2" class="node">
<title>SignUpModule</title>
<polygon fill="#8dd3c7" stroke="#000000" points="327.3301,-187 324.3301,-191 303.3301,-191 300.3301,-187 224.6699,-187 224.6699,-151 327.3301,-151 327.3301,-187"/>
<text text-anchor="middle" x="276" y="-164.8" font-family="Times,serif" font-size="14.00" fill="#000000">SignUpModule</text>
</g>
<!-- SignUp&#45;&gt;SignUpModule -->
<g id="edge1" class="edge">
<title>SignUp&#45;&gt;SignUpModule</title>
<path fill="none" stroke="#000000" d="M330.5093,-104C322.9259,-104 316.8593,-104 316.8593,-104 316.8593,-104 316.8593,-140.8939 316.8593,-140.8939"/>
<polygon fill="#000000" stroke="#000000" points="313.3593,-140.8938 316.8593,-150.8939 320.3593,-140.8939 313.3593,-140.8938"/>
</g>
<!-- SignUp  -->
<g id="node4" class="node">
<title>SignUp </title>
<polygon fill="#fb8072" stroke="#000000" points="307.2804,-252 244.7196,-252 244.7196,-216 307.2804,-216 307.2804,-252"/>
<text text-anchor="middle" x="276" y="-229.8" font-family="Times,serif" font-size="14.00" fill="#000000">SignUp </text>
</g>
<!-- SignUpModule&#45;&gt;SignUp  -->
<g id="edge3" class="edge">
<title>SignUpModule&#45;&gt;SignUp </title>
<path fill="none" stroke="#000000" stroke-dasharray="5,2" d="M276,-187.1061C276,-187.1061 276,-205.991 276,-205.991"/>
<polygon fill="#000000" stroke="#000000" points="272.5001,-205.9909 276,-215.991 279.5001,-205.991 272.5001,-205.9909"/>
</g>
<!-- IonicPageModule.forChild(args) -->
<g id="node3" class="node">
<title>IonicPageModule.forChild(args)</title>
<polygon fill="#8dd3c7" stroke="#000000" points="306.6074,-122 303.6074,-126 282.6074,-126 279.6074,-122 107.3926,-122 107.3926,-86 306.6074,-86 306.6074,-122"/>
<text text-anchor="middle" x="207" y="-99.8" font-family="Times,serif" font-size="14.00" fill="#000000">IonicPageModule.forChild(args)</text>
</g>
<!-- IonicPageModule.forChild(args)&#45;&gt;SignUpModule -->
<g id="edge2" class="edge">
<title>IonicPageModule.forChild(args)&#45;&gt;SignUpModule</title>
<path fill="none" stroke="#000000" d="M265.6945,-122.1061C265.6945,-122.1061 265.6945,-140.991 265.6945,-140.991"/>
<polygon fill="#000000" stroke="#000000" points="262.1945,-140.9909 265.6945,-150.991 269.1945,-140.991 262.1945,-140.9909"/>
</g>
</g>
</svg>
